<mxfile host="65bd71144e">
    <diagram id="g7fiEXDky_u8z-6Ft_af" name="Page-1">
        <mxGraphModel dx="743" dy="809" grid="1" gridSize="10" guides="1" tooltips="1" connect="1" arrows="1" fold="1" page="1" pageScale="1" pageWidth="850" pageHeight="1100" math="0" shadow="0">
            <root>
                <mxCell id="0"/>
                <mxCell id="1" parent="0"/>
                <mxCell id="18" value="" style="ellipse;html=1;shape=startState;fillColor=#000000;strokeColor=#ff0000;" vertex="1" parent="1">
                    <mxGeometry x="400.5" y="32" width="40" height="40" as="geometry"/>
                </mxCell>
                <mxCell id="19" value="" style="edgeStyle=orthogonalEdgeStyle;html=1;verticalAlign=bottom;endArrow=open;endSize=8;strokeColor=#ff0000;entryX=0.5;entryY=0;entryDx=0;entryDy=0;" edge="1" parent="1" source="18" target="20">
                    <mxGeometry relative="1" as="geometry">
                        <mxPoint x="420.5" y="134" as="targetPoint"/>
                        <mxPoint x="421" y="70" as="sourcePoint"/>
                    </mxGeometry>
                </mxCell>
                <mxCell id="20" value="&lt;span style=&quot;font-size: 18px;&quot;&gt;admin enters the username of the user that wants to be admin&lt;/span&gt;" style="rounded=1;whiteSpace=wrap;html=1;arcSize=40;fontColor=#000000;fillColor=#ffffc0;strokeColor=#ff0000;strokeWidth=3;" vertex="1" parent="1">
                    <mxGeometry x="355.5" y="120" width="214.5" height="90" as="geometry"/>
                </mxCell>
                <mxCell id="21" value="" style="edgeStyle=orthogonalEdgeStyle;html=1;verticalAlign=bottom;endArrow=open;endSize=8;strokeColor=#ff0000;entryX=0.995;entryY=0.491;entryDx=0;entryDy=0;entryPerimeter=0;" edge="1" parent="1" source="20" target="22">
                    <mxGeometry relative="1" as="geometry">
                        <mxPoint x="259.5" y="164" as="targetPoint"/>
                        <Array as="points"/>
                    </mxGeometry>
                </mxCell>
                <mxCell id="22" value="system checks this user already exists" style="rounded=1;whiteSpace=wrap;html=1;arcSize=40;fontColor=#000000;fillColor=#ffffc0;strokeColor=#ff0000;strokeWidth=3;fontSize=18;" vertex="1" parent="1">
                    <mxGeometry x="110" y="120" width="181.5" height="90" as="geometry"/>
                </mxCell>
                <mxCell id="23" value="" style="edgeStyle=orthogonalEdgeStyle;html=1;verticalAlign=bottom;endArrow=open;endSize=8;strokeColor=#ff0000;fontSize=18;startArrow=none;exitX=0.5;exitY=1;exitDx=0;exitDy=0;entryX=0.5;entryY=0;entryDx=0;entryDy=0;" edge="1" parent="1" source="22" target="29">
                    <mxGeometry relative="1" as="geometry">
                        <mxPoint x="178.55555555555554" y="310" as="targetPoint"/>
                        <mxPoint x="310.5" y="248.00000000000023" as="sourcePoint"/>
                    </mxGeometry>
                </mxCell>
                <mxCell id="24" value="error message of &quot;there is not such user&quot;" style="rounded=1;whiteSpace=wrap;html=1;arcSize=40;fontColor=#000000;fillColor=#ffffc0;strokeColor=#ff0000;strokeWidth=3;fontSize=18;" vertex="1" parent="1">
                    <mxGeometry x="330" y="300" width="180" height="72" as="geometry"/>
                </mxCell>
                <mxCell id="25" value="" style="edgeStyle=orthogonalEdgeStyle;html=1;verticalAlign=bottom;endArrow=open;endSize=8;strokeColor=#ff0000;labelBackgroundColor=none;fontSize=18;exitX=0.5;exitY=0;exitDx=0;exitDy=0;entryX=0.75;entryY=1;entryDx=0;entryDy=0;" edge="1" parent="1" source="24" target="22">
                    <mxGeometry relative="1" as="geometry">
                        <mxPoint x="425.5" y="332" as="targetPoint"/>
                        <Array as="points">
                            <mxPoint x="420" y="250"/>
                            <mxPoint x="246" y="250"/>
                        </Array>
                    </mxGeometry>
                </mxCell>
                <mxCell id="26" value="&lt;p style=&quot;margin: 0px; font-variant-numeric: normal; font-variant-east-asian: normal; font-variant-alternates: normal; font-size-adjust: none; font-kerning: auto; font-optical-sizing: auto; font-feature-settings: normal; font-variation-settings: normal; font-variant-position: normal; font-stretch: normal; line-height: normal; font-family: &amp;quot;Helvetica Neue&amp;quot;;&quot; class=&quot;p1&quot;&gt;the user is an admin now&lt;/p&gt;" style="rounded=1;whiteSpace=wrap;html=1;arcSize=40;fontColor=#000000;fillColor=#ffffc0;strokeColor=#ff0000;strokeWidth=3;fontFamily=Helvetica;fontSize=18;align=center;" vertex="1" parent="1">
                    <mxGeometry x="215" y="436" width="215" height="54" as="geometry"/>
                </mxCell>
                <mxCell id="27" value="" style="edgeStyle=orthogonalEdgeStyle;html=1;verticalAlign=bottom;endArrow=none;endSize=8;strokeColor=#ff0000;labelBackgroundColor=none;fontFamily=Helvetica;fontSize=18;fontColor=#FFFFFF;exitX=1;exitY=0.5;exitDx=0;exitDy=0;" edge="1" parent="1" source="32" target="28">
                    <mxGeometry relative="1" as="geometry">
                        <mxPoint x="547.9999999999998" y="480" as="targetPoint"/>
                        <mxPoint x="458" y="480" as="sourcePoint"/>
                    </mxGeometry>
                </mxCell>
                <mxCell id="28" value="" style="ellipse;html=1;shape=endState;fillColor=#000000;strokeColor=#ff0000;strokeWidth=3;fontFamily=Helvetica;fontSize=8;fontColor=#FFFFFF;" vertex="1" parent="1">
                    <mxGeometry x="710" y="372" width="30" height="30" as="geometry"/>
                </mxCell>
                <mxCell id="29" value="" style="rhombus;whiteSpace=wrap;html=1;fillColor=#ffffc0;strokeColor=#ff0000;strokeWidth=3;fontSize=18;" vertex="1" parent="1">
                    <mxGeometry x="160" y="316" width="30" height="40" as="geometry"/>
                </mxCell>
                <mxCell id="30" value="no" style="edgeStyle=orthogonalEdgeStyle;html=1;align=left;verticalAlign=bottom;endArrow=open;endSize=8;strokeColor=#ff0000;exitX=1;exitY=0.5;exitDx=0;exitDy=0;entryX=0;entryY=0.5;entryDx=0;entryDy=0;labelBackgroundColor=none;" edge="1" parent="1" source="29" target="24">
                    <mxGeometry x="-1" relative="1" as="geometry">
                        <mxPoint x="291.5" y="335.62" as="targetPoint"/>
                        <mxPoint x="191.5" y="335.62" as="sourcePoint"/>
                    </mxGeometry>
                </mxCell>
                <mxCell id="31" value="yes" style="edgeStyle=orthogonalEdgeStyle;html=1;align=left;verticalAlign=top;endArrow=open;endSize=8;strokeColor=#ff0000;exitX=0.5;exitY=1;exitDx=0;exitDy=0;entryX=0;entryY=0.5;entryDx=0;entryDy=0;labelBackgroundColor=none;" edge="1" parent="1" source="29" target="26">
                    <mxGeometry x="-1" y="8" relative="1" as="geometry">
                        <mxPoint x="174.62" y="432" as="targetPoint"/>
                        <mxPoint x="174.62" y="372" as="sourcePoint"/>
                        <mxPoint x="-3" y="-6" as="offset"/>
                    </mxGeometry>
                </mxCell>
                <mxCell id="32" value="success message" style="rounded=1;whiteSpace=wrap;html=1;arcSize=40;fontColor=#000000;fillColor=#ffffc0;strokeColor=#ff0000;strokeWidth=3;fontSize=18;" vertex="1" parent="1">
                    <mxGeometry x="510" y="430" width="160" height="72" as="geometry"/>
                </mxCell>
                <mxCell id="33" value="" style="edgeStyle=orthogonalEdgeStyle;html=1;verticalAlign=bottom;endArrow=open;endSize=8;strokeColor=#ff0000;entryX=0;entryY=0.5;entryDx=0;entryDy=0;exitX=1;exitY=0.5;exitDx=0;exitDy=0;" edge="1" parent="1" source="26" target="32">
                    <mxGeometry relative="1" as="geometry">
                        <mxPoint x="393.00249999999994" y="270.19000000000005" as="targetPoint"/>
                        <Array as="points">
                            <mxPoint x="510" y="466"/>
                        </Array>
                        <mxPoint x="457.90999999999997" y="270" as="sourcePoint"/>
                    </mxGeometry>
                </mxCell>
            </root>
        </mxGraphModel>
    </diagram>
</mxfile>